<?xml version="1.0" encoding="utf-8"?>
<svg viewBox="0 0 500 500" xmlns="http://www.w3.org/2000/svg">
  <title/>
  <circle class="cls-1" cx="184.834" cy="123.039" r="1.91" style="fill: none; stroke: rgb(2, 2, 2); stroke-miterlimit: 10; stroke-width: 0.52006px;" transform="matrix(41.066658, 0, 0, 35.84761, -7344.956543, -4325.321289)"/>
  <path class="cls-1" d="M 128.107 259.881 C 128.107 203.242 180.705 157.352 245.556 157.352 C 310.436 157.352 363.006 203.242 363.006 259.881" style="fill: none; stroke: rgb(2, 2, 2); stroke-miterlimit: 10; stroke-width: 20px;"/>
  <circle class="cls-1" cx="177.194" cy="138.309" r="1.91" style="fill: none; stroke: rgb(2, 2, 2); stroke-miterlimit: 10; stroke-width: 0.577093px;" transform="matrix(30.884867, 0, 0, 24.565474, -5356.272949, -3042.574707)"/>
  <path class="cls-1" d="M 28.007 472.472 C 28.007 433.634 67.514 402.116 116.338 401.971 C 165.292 401.971 204.978 433.537 204.978 472.472" style="fill: none; stroke: rgb(2, 2, 2); stroke-miterlimit: 10; stroke-width: 16px;"/>
  <line class="cls-1" x1="242.001" y1="176.182" x2="242.001" y2="258.267" style="fill: none; stroke: rgb(2, 2, 2); stroke-miterlimit: 10; stroke-width: 10px;"/>
  <polyline class="cls-1" points="186.323 318.315 242.298 258.859 298.272 318.315" style="fill: none; stroke: rgb(2, 2, 2); stroke-miterlimit: 10; stroke-width: 10px;"/>
  <path d="M 131.986 48.122 C 131.984 48.093 131.981 48.063 131.978 48.034 C 131.794 45.419 129.622 43.389 127 43.382 L 117 43.382 C 114.337 43.37 112.138 45.459 112.013 48.119 C 112.003 48.198 112 48.28 112 48.372 L 112 54.882 C 112 55.807 112.373 56.71 113.022 57.358 C 113.681 58.013 114.572 58.381 115.5 58.382 C 117.3 58.382 118.004 57.382 119 55.382 C 119.146 55.09 119.992 53.382 122 53.382 C 123.996 53.382 124.853 55.089 125 55.382 C 126.004 57.382 126.7 58.382 128.5 58.382 C 129.425 58.382 130.328 58.009 130.976 57.36 C 131.631 56.701 131.999 55.811 132 54.882 L 132 48.382 C 132 48.287 131.996 48.202 131.986 48.122 Z M 117 50.413 C 115.461 50.448 114.462 48.803 115.201 47.453 C 115.56 46.798 116.253 46.398 116.999 46.414 C 118.539 46.448 119.464 48.136 118.665 49.452 C 118.31 50.035 117.683 50.398 117 50.413 Z M 127 45.413 C 127.77 45.413 128.251 46.246 127.866 46.913 C 127.688 47.222 127.358 47.413 127 47.413 C 126.231 47.413 125.749 46.58 126.134 45.913 C 126.313 45.604 126.643 45.413 127 45.413 Z M 125 49.413 C 124.231 49.413 123.749 48.58 124.134 47.913 C 124.313 47.604 124.643 47.413 125 47.413 C 125.77 47.413 126.251 48.246 125.866 48.913 C 125.688 49.222 125.358 49.413 125 49.413 Z M 127 51.413 C 126.231 51.413 125.749 50.58 126.134 49.913 C 126.313 49.604 126.643 49.413 127 49.413 C 127.77 49.413 128.251 50.246 127.866 50.913 C 127.688 51.222 127.358 51.413 127 51.413 Z M 129 49.413 C 128.231 49.413 127.749 48.58 128.134 47.913 C 128.313 47.604 128.643 47.413 129 47.413 C 129.77 47.413 130.251 48.246 129.866 48.913 C 129.688 49.222 129.358 49.413 129 49.413 Z" transform="matrix(0, 0, 0, 3.333322286605835, 112, -101.22407531738281)"/>
  <path d="M 299.244 227.127 C 299.232 226.989 299.221 226.848 299.198 226.711 C 298.169 214.313 285.926 204.686 271.155 204.656 L 214.818 204.656 C 199.823 204.598 187.429 214.5 186.726 227.113 C 186.669 227.487 186.652 227.88 186.652 228.315 L 186.652 259.177 C 186.652 263.56 188.754 267.842 192.409 270.915 C 196.123 274.018 201.14 275.765 206.368 275.769 C 216.509 275.769 220.475 271.027 226.087 261.547 C 226.908 260.161 231.674 252.066 242.987 252.066 C 254.232 252.066 259.06 260.154 259.887 261.547 C 265.543 271.027 269.465 275.769 279.605 275.769 C 284.817 275.769 289.903 274.002 293.554 270.923 C 297.245 267.801 299.318 263.582 299.322 259.177 L 299.322 228.358 C 299.322 227.91 299.3 227.506 299.244 227.127 Z M 214.818 237.99 C 206.15 238.155 200.521 230.354 204.686 223.954 C 206.707 220.851 210.612 218.953 214.814 219.031 C 223.491 219.189 228.7 227.195 224.199 233.435 C 222.199 236.196 218.668 237.919 214.818 237.99 Z M 271.155 214.282 C 275.493 214.282 278.203 218.235 276.033 221.394 C 275.031 222.861 273.172 223.768 271.155 223.768 C 266.823 223.768 264.113 219.818 266.276 216.656 C 267.285 215.191 269.144 214.282 271.155 214.282 Z M 259.887 233.248 C 255.556 233.248 252.846 229.302 255.009 226.136 C 256.018 224.669 257.877 223.768 259.887 223.768 C 264.226 223.768 266.936 227.713 264.766 230.878 C 263.764 232.341 261.905 233.248 259.887 233.248 Z M 271.155 242.728 C 266.823 242.728 264.113 238.781 266.276 235.616 C 267.285 234.153 269.144 233.248 271.155 233.248 C 275.493 233.248 278.203 237.199 276.033 240.358 C 275.031 241.825 273.172 242.728 271.155 242.728 Z M 282.422 233.248 C 278.091 233.248 275.379 229.302 277.543 226.136 C 278.553 224.669 280.412 223.768 282.422 223.768 C 286.759 223.768 289.471 227.713 287.301 230.878 C 286.297 232.341 284.438 233.248 282.422 233.248 Z" style="stroke-width: 10px;"/>
  <circle class="cls-1" cx="177.194" cy="138.309" r="1.91" style="fill: none; stroke: rgb(2, 2, 2); stroke-miterlimit: 10; stroke-width: 0px;" transform="matrix(23.957851, 0, 0, 20.314877, -3869.120117, -2460.326416)"/>
  <path class="cls-1" d="M 307.546 446.507 C 307.546 414.389 338.192 388.325 376.066 388.205 C 414.04 388.205 444.825 414.309 444.825 446.507" style="fill: none; stroke: rgb(2, 2, 2); stroke-miterlimit: 10; stroke-width: 0px;"/>
  <circle class="cls-1" cx="177.194" cy="138.309" r="1.91" style="fill: none; stroke: rgb(2, 2, 2); stroke-miterlimit: 10; stroke-width: 0.577093px;" transform="matrix(30.884867, 0, 0, 24.565474, -5103.097168, -3044.843262)"/>
  <path class="cls-1" d="M 281.182 470.204 C 281.182 431.366 320.689 399.848 369.513 399.703 C 418.467 399.703 458.153 431.269 458.153 470.204" style="fill: none; stroke: rgb(2, 2, 2); stroke-miterlimit: 10; stroke-width: 16px;"/>
</svg>