<?xml version="1.0" encoding="utf-8"?>
<svg viewBox="0 0 500 500" xmlns="http://www.w3.org/2000/svg">
  <title/>
  <path d="M 131.986 48.122 C 131.984 48.093 131.981 48.063 131.978 48.034 C 131.794 45.419 129.622 43.389 127 43.382 L 117 43.382 C 114.337 43.37 112.138 45.459 112.013 48.119 C 112.003 48.198 112 48.28 112 48.372 L 112 54.882 C 112 55.807 112.373 56.71 113.022 57.358 C 113.681 58.013 114.572 58.381 115.5 58.382 C 117.3 58.382 118.004 57.382 119 55.382 C 119.146 55.09 119.992 53.382 122 53.382 C 123.996 53.382 124.853 55.089 125 55.382 C 126.004 57.382 126.7 58.382 128.5 58.382 C 129.425 58.382 130.328 58.009 130.976 57.36 C 131.631 56.701 131.999 55.811 132 54.882 L 132 48.382 C 132 48.287 131.996 48.202 131.986 48.122 Z M 117 50.413 C 115.461 50.448 114.462 48.803 115.201 47.453 C 115.56 46.798 116.253 46.398 116.999 46.414 C 118.539 46.448 119.464 48.136 118.665 49.452 C 118.31 50.035 117.683 50.398 117 50.413 Z M 127 45.413 C 127.77 45.413 128.251 46.246 127.866 46.913 C 127.688 47.222 127.358 47.413 127 47.413 C 126.231 47.413 125.749 46.58 126.134 45.913 C 126.313 45.604 126.643 45.413 127 45.413 Z M 125 49.413 C 124.231 49.413 123.749 48.58 124.134 47.913 C 124.313 47.604 124.643 47.413 125 47.413 C 125.77 47.413 126.251 48.246 125.866 48.913 C 125.688 49.222 125.358 49.413 125 49.413 Z M 127 51.413 C 126.231 51.413 125.749 50.58 126.134 49.913 C 126.313 49.604 126.643 49.413 127 49.413 C 127.77 49.413 128.251 50.246 127.866 50.913 C 127.688 51.222 127.358 51.413 127 51.413 Z M 129 49.413 C 128.231 49.413 127.749 48.58 128.134 47.913 C 128.313 47.604 128.643 47.413 129 47.413 C 129.77 47.413 130.251 48.246 129.866 48.913 C 129.688 49.222 129.358 49.413 129 49.413 Z" transform="matrix(0, 0, 0, 3.333322286605835, 112, -101.22407531738281)"/>
  <path fill="none" d="M 388.511 135.525 C 386.421 106.192 359.838 82.156 328.037 82.156 L 125.114 82.156 C 92.484 82.002 65.614 106.898 64.418 138.408 C 64.379 139.447 64.255 140.451 64.053 141.45 L 64.235 288.168 C 64.235 295.956 67.461 303.549 73.105 309.005 C 78.764 314.478 86.617 317.596 94.676 317.596 C 104.82 317.596 115.738 305.082 128.382 290.582 C 135.199 282.789 142.93 273.923 151.697 265.841 C 163.406 255.051 188.647 244.278 201.597 241.333 C 210.076 239.414 220.895 239.118 226.574 239.118 C 232.258 239.118 243.075 239.414 251.516 241.316 C 264.504 244.278 289.746 255.051 301.454 265.82 C 310.244 273.923 317.952 282.773 324.774 290.582 C 337.413 305.082 348.331 317.596 358.479 317.596 C 366.553 317.596 374.286 314.516 380.026 309.026 C 385.69 303.549 388.915 295.956 388.915 288.168 L 388.915 141.019 C 388.653 139.781 388.713 139.136 388.713 137.879 C 388.53 137.114 388.47 136.329 388.511 135.525 Z M 145.406 199.877 C 114.175 200.565 93.882 168.311 108.88 141.803 C 116.164 128.97 130.227 121.103 145.386 121.418 C 176.618 122.084 195.387 155.203 179.171 181.022 C 171.988 192.479 159.243 199.582 145.406 199.877 Z M 307.745 101.778 C 323.372 101.778 333.131 118.142 325.322 131.208 C 321.688 137.288 314.991 141.019 307.745 141.019 C 292.119 141.019 282.36 124.675 290.173 111.586 C 293.784 105.527 300.501 101.778 307.745 101.778 Z M 267.161 180.258 C 251.536 180.258 241.775 163.915 249.589 150.827 C 253.199 144.763 259.915 141.019 267.161 141.019 C 282.786 141.019 292.545 157.382 284.735 170.448 C 281.101 176.529 274.405 180.258 267.161 180.258 Z M 307.745 219.498 C 292.119 219.498 282.36 203.156 290.173 190.07 C 293.784 184.005 300.501 180.258 307.745 180.258 C 323.372 180.258 333.131 196.619 325.322 209.689 C 321.688 215.77 314.991 219.498 307.745 219.498 Z M 348.331 180.258 C 332.705 180.258 322.946 163.915 330.759 150.827 C 334.369 144.763 341.086 141.019 348.331 141.019 C 363.955 141.019 373.718 157.382 365.905 170.448 C 362.272 176.529 355.575 180.258 348.331 180.258 Z" style="stroke-width: 0px;"/>
  <circle class="st0" cx="181.28" cy="125.413" r="4" style="fill: none; stroke: rgb(0, 0, 0); stroke-linecap: round; stroke-linejoin: round; stroke-miterlimit: 10; stroke-width: 1.8328px;" transform="matrix(13.849326, 0, 0, 12.34006, -2258.317627, -1420.302734)"/>
  <path class="st0" d="M 225.58 173.552 L 225.58 303.123 C 240.816 316.698 265.744 316.698 280.977 303.123 L 280.977 173.552" style="fill: none; stroke: rgb(0, 0, 0); stroke-linecap: round; stroke-linejoin: round; stroke-miterlimit: 10; stroke-width: 20px;"/>
  <path class="st0" d="M 225.58 302.93 L 142.484 302.93 C 134.175 302.93 125.865 306.631 120.328 312.804 L 73.239 364.631 L 73.239 401.651 C 73.239 415.226 85.705 426.332 100.939 426.332 L 405.623 426.332 C 420.856 426.332 433.321 415.226 433.321 401.651 L 433.321 364.631 L 386.233 312.804 C 380.695 306.631 372.383 302.93 364.076 302.93 L 280.977 302.93" style="fill: none; stroke: rgb(0, 0, 0); stroke-linecap: round; stroke-linejoin: round; stroke-miterlimit: 10; stroke-width: 20px;"/>
</svg>