<?xml version="1.0" encoding="utf-8"?>
<svg viewBox="0 0 500 500" xmlns="http://www.w3.org/2000/svg">
  <text style="white-space: pre; fill: rgb(51, 51, 51); font-family: Arial, sans-serif; font-size: 16.6px;" x="173.579" y="177.133" transform="matrix(2.550135, 0, 0, 2.927639, -266.224701, -135.248367)"> </text>
  <path d="M 81.779 322.853 C 76.935 323.842 72.878 324.82 68.783 325.483 C 50.76 328.396 36.604 315.491 33.958 294.879 C 30.107 264.957 49.898 232.185 68.793 223.182 C 75.187 220.137 82.66 220.082 91.475 218.287 C 114.97 156.207 159.631 125.854 220.273 121.623 C 221.165 110.197 222.049 98.918 222.978 87.053 C 220.357 85.819 217.215 85.351 215.524 83.304 C 213.058 80.328 210.22 76.219 210.21 72.581 C 210.2 69.461 213.593 64.126 216.079 63.617 C 222.964 62.205 230.474 61.239 237.153 63.002 C 245.681 65.25 246.903 73.035 241.473 81.037 C 240.356 82.363 239.633 84.062 239.41 85.888 C 239.864 96.055 240.637 106.203 241.234 115.273 C 257.197 116.907 272.456 117.788 287.544 120.14 C 336.892 127.84 369.572 159.688 387.396 212.498 C 387.694 213.38 388.049 214.242 388.42 215.09 C 388.6 215.382 388.814 215.649 389.054 215.881 C 397.255 215.881 405.681 214.611 413.703 216.143 C 430.903 219.435 443.757 230.096 448.029 250.435 C 452.299 270.776 445.501 287.658 432.488 301.071 C 419.692 314.264 404.084 317.894 387.182 315.409 C 386.551 316.009 386.007 316.718 385.566 317.509 C 366.669 368.547 331.615 398.48 287.148 415.295 C 248.531 430.008 206.944 431.01 167.824 418.165 C 124.642 404.461 93.43 375.841 81.779 322.853 Z M 222.372 401.753 C 231.527 400.86 240.744 400.455 249.822 398.992 C 286.245 393.116 318.474 377.146 343.194 344.905 C 386.585 288.322 375.785 185.339 300.102 156.774 C 272.079 146.208 242.826 139.704 213.084 141.892 C 179.794 144.346 150.759 158.943 129.284 189.184 C 109.365 217.221 100.581 250.5 99.858 286.153 C 98.811 337.899 120.783 373.058 163.249 390.224 C 182.284 397.701 202.246 401.595 222.363 401.751 L 222.372 401.753 Z M 83.785 238.806 C 83.076 238.696 82.356 238.707 81.649 238.838 C 65.281 244.368 49.192 276.622 53.362 295.33 C 54.627 301.001 57.757 304.374 62.718 304.485 C 68.117 304.608 73.533 303.842 77.486 303.563 C 79.676 281.002 81.719 260.003 83.78 238.804 L 83.785 238.806 Z M 394.176 288.094 C 403.21 287.918 411.881 283.983 418.58 277.021 C 427.681 267.541 428.757 253.169 420.922 244.888 C 413.319 236.849 404.201 234.532 394.176 236.871 L 394.176 288.094 Z" fill="#000000" style=""/>
  <path d="M 249 302.19 C 253.067 303.051 257.582 302.943 261.053 305.071 C 262.631 306.066 264.015 307.418 265.123 309.046 C 266.23 310.674 267.038 312.545 267.496 314.543 C 268.195 320.002 264.07 322.807 259.541 323.486 C 257.349 323.823 255.122 323.673 252.979 323.047 C 249.11 321.713 245.012 321.528 241.065 322.513 C 237.119 323.499 233.457 325.62 230.421 328.68 C 226.978 331.926 222.946 334.38 219.485 329.572 C 216.422 325.312 217.827 320.368 220.886 316.562 C 224.386 311.975 228.714 308.311 233.567 305.832 C 238.423 303.348 243.688 302.108 249 302.19 Z" fill="#000000" style=""/>
  <path d="M 179.923 215.784 C 189.383 216.159 195.302 223.91 194.79 235.262 C 194.382 244.304 188.055 251.594 180.945 251.219 C 172.912 250.794 166.54 241.573 166.886 230.853 C 167.236 219.982 171.166 215.434 179.923 215.784 Z" fill="#000000" style=""/>
  <path d="M 271.361 229.898 C 271.342 220.833 274.372 216.724 281.177 216.586 C 289.97 216.407 295.494 222.16 295.292 231.286 C 295.118 239.145 289.733 245.81 283.409 245.989 C 276.185 246.191 271.377 239.764 271.361 229.898 Z" fill="#000000" style=""/>
</svg>