<?xml version="1.0" encoding="utf-8"?>
<svg viewBox="0 0 500 500" xmlns="http://www.w3.org/2000/svg">
  <text style="fill: rgb(51, 51, 51); font-family: Arial, sans-serif; font-size: 16.6px; stroke-width: 2.16584px; white-space: pre;" transform="matrix(3.189654, 0, 0, 3.27435, -376.136566, -186.931)" x="173.579" y="177.133"> </text>
  <path d="M 454.67 236.083 C 450.517 226.892 441.617 224.687 435.594 224.161 L 435.594 168.145 C 435.594 147.369 417.156 130.476 394.486 130.476 L 271.158 130.476 L 271.158 104.293 C 277.428 99.133 281.435 91.712 281.435 83.388 C 281.435 61.651 255.743 48.052 235.189 58.92 C 225.652 63.968 219.774 73.291 219.774 83.388 C 219.774 91.712 223.781 99.133 230.051 104.293 L 230.051 130.476 L 106.723 130.476 C 84.053 130.476 65.614 147.369 65.614 168.145 L 65.614 224.593 L 63.93 224.707 C 53.179 225.423 44.855 233.615 44.855 243.485 L 44.855 281.156 C 44.855 291.572 54.064 299.992 65.41 299.992 L 65.614 299.992 L 65.614 394.166 C 65.614 414.941 84.053 431.837 106.723 431.837 L 394.486 431.837 C 417.156 431.837 435.594 414.941 435.594 394.166 L 435.594 299.992 C 446.96 299.992 456.149 291.572 456.149 281.156 L 456.149 244.653 C 456.395 241.734 455.881 238.795 454.67 236.083 Z M 89.2 407.601 C 86.848 394.282 86.078 155.112 86.863 153.542 L 411.425 152.958 L 411.444 216.541 L 411.425 246.99 L 411.425 275.314 L 410.86 305.781 L 409.713 407.601 L 89.2 407.601 Z" style="stroke-width: 7px;"/>
  <ellipse cx="178.665" cy="243.485" rx="30.831" ry="37.671" style="stroke-width: 7px;"/>
  <ellipse cx="322.545" cy="243.485" rx="30.831" ry="37.671" style="stroke-width: 7px;"/>
  <path d="M 168.387 318.825 L 332.822 318.825 L 332.822 356.497 L 168.387 356.497 L 168.387 318.825 Z" style="stroke-width: 7px;"/>
</svg>