/* XPM */
static char *_998d0379cf341a383126fc90b67a957BUrD1rYNWgAgd6xr[] = {
/* columns rows colors chars-per-pixel */
"32 32 6 1 ",
"  c #FFF79D",
". c #FAEA2E",
"X c #F7C431",
"o c #EEA41A",
"O c #C98C1C",
"+ c #AE6D26",
/* pixels */
"OXXO++O++O+++Oo.XOO+OOXXXXXXXoOO",
"X XXOOOO++++Oo..ooOO+OoXoXX.ooOo",
"  XooO+OO+OOX. .oooo++OoXoX.oOo.",
"  XoooO+++Oo   .XXooO+O+OooXoOX ",
"  .ooXoO+Oo    .XoXooO+++OoXoX  ",
" .....XOOX     ..XooOOO+OO+OO.  ",
"X.XooooOX.    .....XXoO+++++OoXX",
"XXooXoOOoX.X.X..XoOOOo+++OXXOOXX",
"XooooO++OX..XXX.XOOOOO+oo. .XoOo",
"oXooO++O+OoXXXX.oOOOO+OX.  .oooO",
"OXoOOOOOO++oXXX.OOOOOOo.   .ooOo",
"OOOOO+o.oOOOoXoXOOOO+OX.  ..XooO",
"oO++OX  XXOOOoXoOoO++OX  ....Xoo",
"o++Oo   XXXOOOoooO+OOOo.XX...XXX",
"O+Oo   .XXXoO+OOO+++OOoXoooXoOOo",
"O+O.  ...XoXoO+O+++OOXoOoooXOOoO",
"O++XoX...oOOOO+O+OOX. oOOOoXOOO+",
"+O+oXXX.oOOO+O++OOX  .XOOOooO+++",
"+++OOXX.OOO+O++O+X.   XoOO+O++O+",
"++++OoXXOO++++++OX    XXXooOOOOO",
"O+OO++OoO+++O+++OoX.. ...XoO+O++",
"OOOOO+++++OO+OO+Oo.X. XXoooOO+++",
"OoXXooO+OOO+OXXoOOX...XoXoO++O+O",
"oX....oO++OOXXXooOoXX.XXoOOooOOO",
"o.... XXOOOo..XXXoOOooooOo. .XoO",
"O.... XXoOOoooXooo+O++OOo.. XXXo",
"OX.  ...XX+OooXooOO++Ooo.   XXXX",
"oooXX.XoXoO+OoXoO+++OOX.   .XoXo",
"ooOoXXoXooO+++OO+O+OOo     ..Xoo",
"XooOoXoooOOOO++OO+++OX.   ....XX",
"OOoOOoooOOO+OOOO+++O+X.XXX....Xo",
"OOO+O+OOO++OO+OoOO++Oo.XXXX..XOO"
};
