/* XPM */
static char *_38e91c612324d03e735f07279f5bb4eti9jZXwOIaDnT7T7[] = {
/* columns rows colors chars-per-pixel */
"32 32 7 1 ",
"  c #9C999C",
". c #8B898B",
"X c gray50",
"o c #787678",
"O c #6A6D6A",
"+ c gray39",
"@ c #5A595A",
/* pixels */
"..                          ...@",
".oX...............XX....XX.XXX.@",
".X..XX..X..X...XXXX..XX..XooXo.@",
" XXXX.X...XooX..XX..X.XXXXXooXX@",
" X.ooX..XXoX..XXXXXXXXXo.XXXXXX@",
" ..XooX..XX..XXXXX.XoX..XXXXXXX@",
" X...XoXX.ooXXX.XXooX..XooXooXo@",
" XoXXXXXXXXXoXXX..XX.XXXXoooXoo@",
" XXoXoXXXoXXXXXXXXXXXXXXoXXXXXX@",
" XoooXXooX..XX.XoX.oooXooXX.XXX@",
" XoOooooXXX...XXXoooXXoooooX..X@",
".ooOXoXoXXXoXXXXXXXX..XXOooXXoX@",
".oOOoXOooooXooooooX.oXOOoooooXX@",
"XoOOOOXXooooooooXoooXXXOOOXXooo@",
"OOOOOOOOOOOOOOOOOOOOOOOOOOOOOOO+",
"++@+@@@@@+++@@@@@@@+++++++++++++",
"             ..@...             ",
"ooXoXX.....XXXX@.XX.X...X...XXXX",
"XooXX..X.X..XXX@ XXX...XXXXXXXXX",
"X.X..X..XXXX.XX@ XXXXXXX.XXoXX..",
".XXXXXXXXXXXXXo@ oXXX...XXXXooX.",
"XXXX.XXXX.XXoXo@ XoX.ooXoXXXXooX",
"X.XXX.X..XoXooO@ oX..XooXXXX.XXX",
"XX.....XooXoXOO@ oXX..XXXoXo..XX",
"XXXX.XX.Xo.XoOO@ oXXXXX..ooXXXXX",
"..XXXXXooXooOoO@.ooXoX.XX..X.XXX",
".XooXoXoX..oXoo@.oooXXXoXX..XX..",
"XXXooXoXoXOXXoo@.XXoXooXoXXXX.XX",
"XoOOoOooOOXXXoo@.XooooooXXoXXXoo",
"oooOOooooOOOooo@XoXXXoooooXXXXXo",
"OOOOOOOOOOOOOOO@OOOOOOOOOOOOOOOO",
"++++++++++++@@@@@@++++++++++++++"
};
